<svg width="24" height="24" viewBox="0 0 24 24" fill="none" xmlns="http://www.w3.org/2000/svg">
<g clip-path="url(#clip0_573_9092)">
<path fill-rule="evenodd" clip-rule="evenodd" d="M0 1.04348C0 0.467181 0.447715 0 1 0H5C5.47662 0 5.88701 0.351011 5.98055 0.838688L6.82043 5.21739H23C23.298 5.21739 23.5805 5.3561 23.7705 5.59571C23.9605 5.83532 24.0381 6.15086 23.9823 6.45634L22.3809 15.2189C22.2437 15.9396 21.868 16.5869 21.3195 17.0476C20.7738 17.506 20.0916 17.7506 19.3913 17.7391H9.68864C8.98837 17.7506 8.3062 17.506 7.76048 17.0476C7.21224 16.5871 6.83663 15.9401 6.69933 15.2198L5.02879 6.51047C5.02201 6.48166 5.01638 6.45238 5.01195 6.42269L4.18031 2.08696H1C0.447715 2.08696 0 1.61978 0 1.04348ZM7.22073 7.30435L8.66084 14.8124C8.70656 15.0526 8.83179 15.2683 9.01461 15.4219C9.19743 15.5755 9.42618 15.6571 9.66084 15.6524L9.68 15.6522H19.4L19.4192 15.6524C19.6538 15.6571 19.8826 15.5755 20.0654 15.4219C20.2473 15.2691 20.3723 15.0546 20.4185 14.8157L21.7913 7.30435H7.22073ZM9 19.8261C7.89543 19.8261 7 20.7604 7 21.913C7 23.0656 7.89543 24 9 24C10.1046 24 11 23.0656 11 21.913C11 20.7604 10.1046 19.8261 9 19.8261ZM20 19.8261C18.8954 19.8261 18 20.7604 18 21.913C18 23.0656 18.8954 24 20 24C21.1046 24 22 23.0656 22 21.913C22 20.7604 21.1046 19.8261 20 19.8261ZM18.1912 10.3132C18.5516 9.93705 18.5516 9.32717 18.1912 8.95102C17.8307 8.57486 17.2462 8.57486 16.8857 8.95102L14.3077 11.6412L13.1142 10.3958C12.7538 10.0197 12.1693 10.0197 11.8088 10.3958C11.4483 10.772 11.4483 11.3819 11.8088 11.758L13.655 13.6844C14.0155 14.0606 14.5999 14.0606 14.9604 13.6844L18.1912 10.3132Z" fill="#5826DA"/>
</g>
<defs>
<clipPath id="clip0_573_9092">
<rect width="24" height="24" fill="white"/>
</clipPath>
</defs>
</svg>
