<svg width="36" height="36" viewBox="0 0 36 36" fill="none" xmlns="http://www.w3.org/2000/svg">
<g id="button / cart">
<g id="Group 1">
<path id="Vector (Stroke)" fill-rule="evenodd" clip-rule="evenodd" d="M12.5835 27.75C12.5835 26.5534 13.5535 25.5834 14.7502 25.5834C15.9468 25.5834 16.9168 26.5534 16.9168 27.75C16.9168 28.9467 15.9468 29.9167 14.7502 29.9167C13.5535 29.9167 12.5835 28.9467 12.5835 27.75Z" fill="#5826DA"/>
<path id="Vector (Stroke)_2" fill-rule="evenodd" clip-rule="evenodd" d="M24.5 27.75C24.5 26.5534 25.47 25.5834 26.6667 25.5834C27.8633 25.5834 28.8333 26.5534 28.8333 27.75C28.8333 28.9467 27.8633 29.9167 26.6667 29.9167C25.47 29.9167 24.5 28.9467 24.5 27.75Z" fill="#5826DA"/>
<path id="Vector (Stroke)_3" fill-rule="evenodd" clip-rule="evenodd" d="M5 6.08333C5 5.48502 5.48502 5 6.08333 5H10.4167C10.933 5 11.3776 5.36442 11.4789 5.87072L12.3888 10.4167H29.9167C30.2395 10.4167 30.5456 10.5607 30.7514 10.8094C30.9572 11.0582 31.0413 11.3858 30.9808 11.7029L29.2459 20.8002C29.0973 21.5484 28.6903 22.2204 28.0961 22.6987C27.5049 23.1746 26.7659 23.4285 26.0073 23.4167H15.496C14.7374 23.4285 13.9984 23.1746 13.4072 22.6987C12.8133 22.2206 12.4064 21.5489 12.2576 20.8011L10.4479 11.7591C10.4405 11.7292 10.4344 11.6988 10.4296 11.668L9.52868 7.16667H6.08333C5.48502 7.16667 5 6.68164 5 6.08333ZM12.8225 12.5833L14.3826 20.3781C14.4321 20.6275 14.5678 20.8515 14.7658 21.0109C14.9639 21.1704 15.2117 21.2551 15.4659 21.2502L15.4867 21.25H26.0167L26.0374 21.2502C26.2916 21.2551 26.5394 21.1704 26.7375 21.0109C26.9346 20.8523 27.07 20.6296 27.1201 20.3816L28.6072 12.5833H12.8225Z" fill="#5826DA"/>
</g>
</g>
</svg>
