<svg width="23" height="18" viewBox="0 0 23 18" fill="none" xmlns="http://www.w3.org/2000/svg">
<path fill-rule="evenodd" clip-rule="evenodd" d="M2.60661 2.554C2.77198 2.22695 3.11208 2 3.50006 2H19.5001C19.8881 2 20.2282 2.22696 20.3935 2.55403L11.5001 8.77943L2.60661 2.554ZM0.500097 2.98529C0.499981 2.99362 0.499969 3.00195 0.500061 3.01028V15C0.500061 16.6523 1.84778 18 3.50006 18H19.5001C21.1523 18 22.5001 16.6523 22.5001 15V3.01408C22.5002 3.00261 22.5002 2.99112 22.5 2.97963C22.489 1.33666 21.1456 0 19.5001 0H3.50006C1.85268 0 0.508065 1.33973 0.500097 2.98529ZM20.5001 4.92076V15C20.5001 15.5477 20.0478 16 19.5001 16H3.50006C2.95235 16 2.50006 15.5477 2.50006 15V4.92072L10.9266 10.8193C11.2709 11.0603 11.7292 11.0603 12.0735 10.8193L20.5001 4.92076Z" fill="white"/>
</svg>
