<svg width="25" height="24" viewBox="0 0 25 24" fill="none" xmlns="http://www.w3.org/2000/svg">
<g id="icon / more pictures">
<path id="Union" fill-rule="evenodd" clip-rule="evenodd" d="M22.5 12C22.5 11.4477 22.0523 11 21.5 11C20.9477 11 20.5 11.4477 20.5 12V13.4999L18.7938 12.2203L18.7938 12.2203C17.9976 11.6232 16.8834 11.7023 16.1796 12.4061L14.0247 14.561L10.8239 11.8175C10.0557 11.1589 8.91666 11.1779 8.17083 11.8616L8.1708 11.8617L4.5 15.2266V4.5C4.5 4.22386 4.72386 4 5 4H12.5C13.0523 4 13.5 3.55228 13.5 3C13.5 2.44771 13.0523 2 12.5 2H5C3.61929 2 2.5 3.11928 2.5 4.5V17.4999V17.5002V19.5C2.5 20.8807 3.61928 22 5 22H20C21.3807 22 22.5 20.8807 22.5 19.5V15.5115V15.4899V12ZM20.5 15.9999L17.5939 13.8204L17.5939 13.8203L17.5939 13.8203L17.5939 13.8203L15.5477 15.8665L17.1508 17.2405C17.5701 17.6 17.6187 18.2313 17.2593 18.6506C16.8998 19.0699 16.2685 19.1185 15.8492 18.759L9.52227 13.336L4.5 17.9397V19.5C4.5 19.7761 4.72386 20 5 20H20C20.2761 20 20.5 19.7761 20.5 19.5V15.9999ZM14.5 6C14.5 5.44772 14.9477 5 15.5 5H17.5V3C17.5 2.44772 17.9477 2 18.5 2C19.0523 2 19.5 2.44772 19.5 3V5H21.5C22.0523 5 22.5 5.44772 22.5 6C22.5 6.55228 22.0523 7 21.5 7H19.5V9C19.5 9.55228 19.0523 10 18.5 10C17.9477 10 17.5 9.55228 17.5 9V7H15.5C14.9477 7 14.5 6.55228 14.5 6Z" fill="#5826DA"/>
</g>
</svg>
